<svg width="513" height="513" viewBox="0 0 513 513" fill="none" xmlns="http://www.w3.org/2000/svg">
<path d="M506.023 443.521L406.121 343.636C401.612 339.128 395.5 336.623 389.087 336.623H372.754C400.41 301.258 416.843 256.776 416.843 208.386C416.843 93.2727 323.554 0 208.421 0C93.2887 0 0 93.2727 0 208.386C0 323.499 93.2887 416.772 208.421 416.772C256.819 416.772 301.309 400.341 336.681 372.69V389.02C336.681 395.432 339.186 401.544 343.695 406.052L443.597 505.937C453.016 515.354 468.247 515.354 477.566 505.937L505.923 477.584C515.342 468.167 515.342 452.939 506.023 443.521ZM208.421 336.623C137.578 336.623 80.1621 279.317 80.1621 208.386C80.1621 137.555 137.478 80.1484 208.421 80.1484C279.265 80.1484 336.681 137.455 336.681 208.386C336.681 279.217 279.365 336.623 208.421 336.623Z" fill="#F5F5F5"/>
</svg>
